# xmcd
#
# Track frame offsets:
#	150
#	12933
#	25701
#	39052
#	48308
#	63176
#	77119
#	95014
#	109997
#	124442
#	132740
#	142728
#	153562
#	165823
#	178181
#	186717
#	197013
#	214215
#	231075
#	247149
#
# Disc length: 3457 seconds
#
# Revision: 0
# Processed by: cddbd v1.5.2PL0 Copyright (c) Steve Scherf et al.
# Submitted via: audiograbber 1.83.01
#
DISCID=1b0d7f14
DTITLE=Various Artist - Country Greats - The Ultimate Collection CD5
DYEAR=2017
DGENRE=Country
TTITLE0=Jimmie Dale And The Flatlanders - Dallas
TTITLE1=Johnny Cash - Folsom Prison Blues
TTITLE2=Webb Pierce - I've Got Leaving On My Mind
TTITLE3=The Everly Brothers - Wake Up Little Susie
TTITLE4=Jeanne Pruett - Satin Sheets
TTITLE5=Patty Loveless - If My Heart Had Windows
TTITLE6=Lee Greenwood - The Wind Beneath My Wings
TTITLE7=Sawyer Brown - Thank God For You
TTITLE8=Cory Branan - You Make Me
TTITLE9=Dex Romweber - I Don't Know
TTITLE10=Rex Hobart and The Misery Boys - Gotta Get Back To Forgetting You
TTITLE11=Leroy van Dyke - Walk On By
TTITLE12=Warner Mack - Is It Wrong For Loving You
TTITLE13=Willie Nelson - The Storm Has Just Begun
TTITLE14=Wayne Hancock - Driving My Young Life Away
TTITLE15=Jimmy Newman - A Fallen Star
TTITLE16=Rick Nelson - Garden Party
TTITLE17=The Oak Ridge Boys - Elvira
TTITLE18=Billy Jo Spears - Blanket On The Ground
TTITLE19=Patsy Cline and The Jordanaires - Crazy
EXTD=
EXTT0=
EXTT1=
EXTT2=
EXTT3=
EXTT4=
EXTT5=
EXTT6=
EXTT7=
EXTT8=
EXTT9=
EXTT10=
EXTT11=
EXTT12=
EXTT13=
EXTT14=
EXTT15=
EXTT16=
EXTT17=
EXTT18=
EXTT19=
PLAYORDER=
